<?xml version="1.0" encoding="UTF-8"?>
<!DOCTYPE svg PUBLIC "-//W3C//DTD SVG 1.1//EN" "http://www.w3.org/Graphics/SVG/1.1/DTD/svg11.dtd">
<!-- Creator: CorelDRAW 2019 (64-Bit) -->
<svg xmlns="http://www.w3.org/2000/svg" xml:space="preserve" width="147.659mm" height="40.6443mm" version="1.1" style="shape-rendering:geometricPrecision; text-rendering:geometricPrecision; image-rendering:optimizeQuality; fill-rule:evenodd; clip-rule:evenodd"
viewBox="0 0 14765.94 4064.43"
 xmlns:xlink="http://www.w3.org/1999/xlink"
 xmlns:xodm="http://www.corel.com/coreldraw/odm/2003">
 <defs>
  <style type="text/css">
   <![CDATA[
    .fil0 {fill:white;fill-rule:nonzero}
   ]]>
  </style>
 </defs>
 <g id="Capa_x0020_1">
  <metadata id="CorelCorpID_0Corel-Layer"/>
  <path class="fil0" d="M13348.39 2464.06c-125.21,1.42 -228.01,-98.93 -229.43,-224.13 -1.42,-125.21 98.93,-228.01 224.13,-229.43 140.76,-1.87 258.09,-54.41 345.15,-142.69 92.6,-93.87 155.82,-229.36 182.85,-390.85 17.21,-231.04 211.59,-414.7 446.77,-414.7l0.06 0c246.41,0 448.02,201.6 448.02,448.07l0 2083.27c0,246.47 -201.61,448.07 -448.02,448.07l-0.06 0c-246.4,0 -448.02,-201.6 -448.02,-448.07l0 -1288.76c-146.68,99.56 -322.27,156.54 -521.45,159.22zm-9913.51 214.12c186.46,156.02 132.14,512.66 -23.88,699.12 -415.98,498.3 -972.07,682.08 -1623.08,620.3 -503.92,-47.82 -989.05,-287.21 -1335.89,-706.79 -306.62,-370.93 -454.65,-821.23 -451.99,-1268.52 -2.66,-447.29 145.37,-897.59 451.99,-1268.52 346.84,-419.58 831.97,-658.97 1335.89,-706.79 651.01,-61.78 1207.1,122 1623.08,620.3 156.02,186.46 210.34,543.1 23.88,699.12 -242.75,186.35 -500.4,56.69 -688.11,-130.13 -20.17,-20.07 -45.36,-42.6 -75.44,-67.46 -233.5,-193.02 -522.42,-273.2 -800.73,-246.79 -278.09,26.39 -546.7,159.59 -739.89,393.29 -171.42,207.37 -253.82,458.44 -251.62,706.98 -2.2,248.54 80.2,499.61 251.62,706.98 193.19,233.7 461.8,366.9 739.89,393.29 278.31,26.41 567.23,-53.77 800.73,-246.79 30.08,-24.86 55.27,-47.39 75.44,-67.46 187.71,-186.82 445.36,-316.48 688.11,-130.13zm2480.79 -2621.69c545.54,0 1039.47,221.16 1397.01,578.71 357.55,357.54 578.71,851.47 578.71,1397.01 0,545.54 -221.16,1039.47 -578.71,1397.01 -357.54,357.55 -851.47,578.71 -1397.01,578.71 -545.54,0 -1039.47,-221.16 -1397.01,-578.71 -357.55,-357.54 -578.71,-851.47 -578.71,-1397.01 0,-545.54 221.16,-1039.47 578.71,-1397.01 357.54,-357.55 851.47,-578.71 1397.01,-578.71zm773.45 1202.27c-197.9,-197.91 -471.37,-320.33 -773.45,-320.33 -302.08,0 -575.55,122.42 -773.45,320.33 -197.91,197.9 -320.33,471.37 -320.33,773.45 0,302.08 122.42,575.55 320.33,773.45 197.9,197.91 471.37,320.33 773.45,320.33 302.08,0 575.55,-122.42 773.45,-320.33 197.91,-197.9 320.33,-471.37 320.33,-773.45 0,-302.08 -122.42,-575.55 -320.33,-773.45zm1616.93 -1228.8l-0.06 0.06 0 0c-122.3,45.76 -214.72,137.34 -265.12,247.95 -50.4,110.68 -58.92,240.53 -13.16,362.7l582.89 1558.7 532.88 1424.91c158.25,559.98 1148.5,608 1335.85,14.65l538.37 -1439.63 582.83 -1558.63c45.76,-122.17 37.24,-252.02 -13.16,-362.7 -50.41,-110.61 -142.82,-202.19 -265.12,-247.95l-0.06 -0.06 0 0c-122.3,-45.76 -252.15,-37.3 -362.83,13.16 -110.68,50.47 -202.2,142.89 -247.95,265.12l-448.66 1199.74 -448.6 1199.68 -448.66 -1199.74 -448.66 -1199.68c-45.69,-122.23 -137.27,-214.71 -247.95,-265.12 -110.68,-50.46 -240.53,-58.92 -362.83,-13.16zm4176.32 1032.3l-0.07 0c-246.4,0 -448.01,201.6 -448.01,448.07l0 2083.27c0,246.47 201.61,448.07 448.01,448.07l0.07 0c246.4,0 448.01,-201.6 448.01,-448.07l0 -2083.27c0,-246.47 -201.61,-448.07 -448.01,-448.07zm-466.74 -610.52c0,-238.37 200.2,-428.99 448.02,-428.99 252.66,0 448.07,200.19 448.07,428.99 0,233.52 -195.41,428.98 -448.07,428.98 -247.82,0 -448.02,-185.89 -448.02,-428.98zm1835.56 0c0,-238.37 200.2,-428.99 448.02,-428.99 252.66,0 448.07,200.19 448.07,428.99 0,233.52 -195.41,428.98 -448.07,428.98 -247.82,0 -448.02,-185.89 -448.02,-428.98z"/>
 </g>
</svg>
